<?xml version="1.0" encoding="UTF-8" standalone="no"?>
<!-- Generator: Adobe Illustrator 15.1.0, SVG Export Plug-In . SVG Version: 6.00 Build 0)  -->

<svg
   xmlns:dc="http://purl.org/dc/elements/1.1/"
   xmlns:cc="http://creativecommons.org/ns#"
   xmlns:rdf="http://www.w3.org/1999/02/22-rdf-syntax-ns#"
   xmlns:svg="http://www.w3.org/2000/svg"
   xmlns="http://www.w3.org/2000/svg"
   xmlns:xlink="http://www.w3.org/1999/xlink"
   xmlns:sodipodi="http://sodipodi.sourceforge.net/DTD/sodipodi-0.dtd"
   xmlns:inkscape="http://www.inkscape.org/namespaces/inkscape"
   version="1.1"
   id="svg4895"
   x="0px"
   y="0px"
   width="420"
   height="128"
   viewBox="-239 0 420 128"
   enable-background="new -239 0 367 128"
   xml:space="preserve"
   inkscape:version="0.48.4 r9939"
   sodipodi:docname="robus.svg"><metadata
     id="metadata129"><rdf:RDF><cc:Work
         rdf:about=""><dc:format>image/svg+xml</dc:format><dc:type
           rdf:resource="http://purl.org/dc/dcmitype/StillImage" /></cc:Work></rdf:RDF></metadata><defs
     id="defs127" /><sodipodi:namedview
     pagecolor="#ffffff"
     bordercolor="#666666"
     borderopacity="1"
     objecttolerance="10"
     gridtolerance="10"
     guidetolerance="10"
     inkscape:pageopacity="0"
     inkscape:pageshadow="2"
     inkscape:window-width="1855"
     inkscape:window-height="1056"
     id="namedview125"
     showgrid="false"
     inkscape:zoom="2"
     inkscape:cx="163"
     inkscape:cy="78.5"
     inkscape:window-x="65"
     inkscape:window-y="24"
     inkscape:window-maximized="1"
     inkscape:current-layer="svg4895" /><g
     id="configuration"
     transform="translate(47.5,-1.5)"><g
       id="spanner"><g
         id="g5"><path
           id="outline1"
           d="m 22.42,17.2 12.96,12.95 -2.5,8.78 -8.78,2.5 -12.96,-12.96 -5.86,5.86 14.89,21.46 17.56,-3.34 61.629,65.62 c 9.44,9.51 22.17,-4.75 13.341,-12.87 L 46.85,42.92 50.86,25.16 28.72,10.89 22.42,17.2 z m 81.06,91.97 c 1.68,-1.68 4.399,-1.68 6.08,0 1.68,1.68 1.68,4.4 0,6.08 -1.681,1.67 -4.4,1.67 -6.08,0 -1.68,-1.68 -1.68,-4.4 0,-6.08 z"
           inkscape:connector-curvature="0"
           style="stroke:#000000;stroke-width:8;stroke-linejoin:round" /></g><g
         id="g8"><path
           id="outline1_1_"
           d="m 22.42,17.2 12.96,12.95 -2.5,8.78 -8.78,2.5 -12.96,-12.96 -5.86,5.86 14.89,21.46 17.56,-3.34 61.629,65.62 c 9.44,9.51 22.17,-4.75 13.341,-12.87 L 46.85,42.92 50.86,25.16 28.72,10.89 22.42,17.2 z m 81.06,91.97 c 1.68,-1.68 4.399,-1.68 6.08,0 1.68,1.68 1.68,4.4 0,6.08 -1.681,1.67 -4.4,1.67 -6.08,0 -1.68,-1.68 -1.68,-4.4 0,-6.08 z"
           inkscape:connector-curvature="0"
           style="stroke:#000000;stroke-width:4;stroke-linejoin:round" /></g><g
         id="g11"><path
           id="outline1_2_"
           d="m 22.42,17.2 12.96,12.95 -2.5,8.78 -8.78,2.5 -12.96,-12.96 -5.86,5.86 14.89,21.46 17.56,-3.34 61.629,65.62 c 9.44,9.51 22.17,-4.75 13.341,-12.87 L 46.85,42.92 50.86,25.16 28.72,10.89 22.42,17.2 z m 81.06,91.97 c 1.68,-1.68 4.399,-1.68 6.08,0 1.68,1.68 1.68,4.4 0,6.08 -1.681,1.67 -4.4,1.67 -6.08,0 -1.68,-1.68 -1.68,-4.4 0,-6.08 z"
           inkscape:connector-curvature="0"
           style="fill:#888a85" /></g><g
         id="g14"><defs
           id="defs16"><path
             id="SVGID_1_"
             d="m 22.42,17.2 12.96,12.95 -2.5,8.78 -8.78,2.5 -12.96,-12.96 -5.86,5.86 14.89,21.46 17.56,-3.34 61.629,65.62 c 9.44,9.51 22.17,-4.75 13.341,-12.87 L 46.85,42.92 50.86,25.16 28.72,10.89 22.42,17.2 z m 81.06,91.97 c 1.68,-1.68 4.399,-1.68 6.08,0 1.68,1.68 1.68,4.4 0,6.08 -1.681,1.67 -4.4,1.67 -6.08,0 -1.68,-1.68 -1.68,-4.4 0,-6.08 z"
             inkscape:connector-curvature="0" /></defs><clipPath
           id="SVGID_2_"><use
             xlink:href="#SVGID_1_"
             overflow="visible"
             id="use20"
             style="overflow:visible"
             x="0"
             y="0"
             width="367"
             height="128" /></clipPath><g
           clip-path="url(#SVGID_2_)"
           id="g22"><path
             id="outline1_3_"
             d="m 22.42,17.2 12.96,12.95 -2.5,8.78 -8.78,2.5 -12.96,-12.96 -5.86,5.86 14.89,21.46 17.56,-3.34 61.629,65.62 c 9.44,9.51 22.17,-4.75 13.341,-12.87 L 46.85,42.92 50.86,25.16 28.72,10.89 22.42,17.2 z m 81.06,91.97 c 1.68,-1.68 4.399,-1.68 6.08,0 1.68,1.68 1.68,4.4 0,6.08 -1.681,1.67 -4.4,1.67 -6.08,0 -1.68,-1.68 -1.68,-4.4 0,-6.08 z"
             inkscape:connector-curvature="0"
             style="fill:none;stroke:#ffffff;stroke-width:4;stroke-opacity:0.2" /></g></g><linearGradient
         id="SVGID_3_"
         gradientUnits="userSpaceOnUse"
         x1="1210.0254"
         y1="-523.17139"
         x2="1314.4854"
         y2="-419.47141"
         gradientTransform="matrix(0.26,0,0,-0.26,-261.8798,-54.0404)"><stop
           offset="0"
           style="stop-color:#FFFFFF"
           id="stop26" /><stop
           offset="1"
           style="stop-color:#FFFFFF;stop-opacity:0"
           id="stop28" /></linearGradient><path
         enable-background="new    "
         d="M 24.33,15.4 37.78,28.78 34.45,40.47 23.5,43.74 9.932,30 5.2,34.54 19.4,54.48 38.3,50.34 100.8,116.7 c 7.5,8.3 20.2,-2.67 11.14,-11.601 L 45.04,42 48.9,24.83 28.94,10.8 24.33,15.4 z m 79.97,93.3 c 1.671,-1.67 4.63,-2 6.3,-0.3 1.7,1.67 3.061,4.63 0.65,7.84 -2,2 -5.2,1.92 -7.2,-0.24 -1.68,-1.68 -1.45,-5.6 0.25,-7.3 z"
         id="path30"
         style="opacity:0.75;fill:url(#SVGID_3_)"
         inkscape:connector-curvature="0" /><linearGradient
         id="SVGID_4_"
         gradientUnits="userSpaceOnUse"
         x1="1453.1191"
         y1="-688.20209"
         x2="1414.5391"
         y2="-754.54218"
         gradientTransform="matrix(0.2,0,0,-0.2,-256.1401,-107.9005)"><stop
           offset="0"
           style="stop-color:#FFFFFF"
           id="stop33" /><stop
           offset="1"
           style="stop-color:#FFFFFF;stop-opacity:0"
           id="stop35" /></linearGradient><path
         enable-background="new    "
         d="M 24.2,15.42 47.67,39.07 50.89,25.2 28.79,10.8 24.2,15.42 z"
         id="path37"
         style="opacity:0.5;fill:url(#SVGID_4_)"
         inkscape:connector-curvature="0" /></g><linearGradient
       id="SVGID_5_"
       gradientUnits="userSpaceOnUse"
       x1="-24.459999"
       y1="274.55759"
       x2="-14.04"
       y2="254.07761"
       gradientTransform="matrix(1,0,0,-1,89.6973,341.7988)"><stop
         offset="0"
         style="stop-color:#000000"
         id="stop40" /><stop
         offset="1"
         style="stop-color:#000000;stop-opacity:0"
         id="stop42" /></linearGradient><path
       enable-background="new    "
       d="m 70.738,65.52 4.632,4.28 c 0.38,4.32 -0.729,5.62 -7.83,11.64 l -8.6,-9.22 11.791,-6.7 0,0 h 0.007 z"
       id="path44"
       style="opacity:0.25;fill:url(#SVGID_5_)"
       inkscape:connector-curvature="0" /><g
       id="hammer"><g
         id="g47"><path
           id="outline2"
           d="m 55.8,12 0.76,0.16 c 8.84,-2.94 28.68,8.64 24.26,18.96 -1.12,1.62 -0.93,4.5 0.42,6.31 L 56.43,62.25 c -1.39,-1.39 -4.48,-1.36 -5.9,0 L 9.5,101.63 c -3.74,3.59 -0.8,6.64 0.78,8.25 l 7.36,7.36 c 1.61,1.6 5.86,3.76 8.88,0.56 L 65.24,76.99 c 1.35,-1.42 1.359,-4.471 0,-5.87 0,0 0.01,-0.021 0,-0.021 L 90.15,46.2 c 2.629,2.37 5.113,2.575 7.47,1.93 4.55,-1.245 7.087,3.207 9.81,6.46 l -1.23,1.21 c -1.82,1.84 -1.65,4.94 0.39,6.98 2.04,2.04 5.15,2.21 6.971,0.39 l 8.14,-8.13 c 1.819,-1.84 1.649,-4.94 -0.4,-6.97 -1.84,-1.85 -4.51,-2.09 -6.37,-0.77 -5.58,-6.26 -2.65,-7.2 -10.01,-15.35 L 91.13,17.86 C 81.2,8.12 68.3,8.13 55.8,12 z"
           inkscape:connector-curvature="0"
           style="stroke:#000000;stroke-width:8;stroke-linejoin:round" /></g><g
         id="g50"><path
           id="outline2_1_"
           d="m 55.8,12 0.76,0.16 c 8.84,-2.94 28.68,8.64 24.26,18.96 -1.12,1.62 -0.93,4.5 0.42,6.31 L 56.43,62.25 c -1.39,-1.39 -4.48,-1.36 -5.9,0 L 9.5,101.63 c -3.74,3.59 -0.8,6.64 0.78,8.25 l 7.36,7.36 c 1.61,1.6 5.86,3.76 8.88,0.56 L 65.24,76.99 c 1.35,-1.42 1.359,-4.471 0,-5.87 0,0 0.01,-0.021 0,-0.021 L 90.15,46.2 c 2.629,2.37 5.113,2.575 7.47,1.93 4.55,-1.245 7.087,3.207 9.81,6.46 l -1.23,1.21 c -1.82,1.84 -1.65,4.94 0.39,6.98 2.04,2.04 5.15,2.21 6.971,0.39 l 8.14,-8.13 c 1.819,-1.84 1.649,-4.94 -0.4,-6.97 -1.84,-1.85 -4.51,-2.09 -6.37,-0.77 -5.58,-6.26 -2.65,-7.2 -10.01,-15.35 L 91.13,17.86 C 81.2,8.12 68.3,8.13 55.8,12 z"
           inkscape:connector-curvature="0"
           style="stroke:#000000;stroke-width:4;stroke-linejoin:round" /></g><path
         d="M 82.92,35.75 53.47,65.2 62.3,74.03 91.75,44.59 82.92,35.75 z"
         id="path53"
         inkscape:connector-curvature="0"
         style="fill:#d3d7cf" /><linearGradient
         id="SVGID_6_"
         gradientUnits="userSpaceOnUse"
         x1="-259.3833"
         y1="467.5625"
         x2="-262.71161"
         y2="470.90079"
         gradientTransform="matrix(33.8835,0,0,-33.8835,11054.567,18097.219)"><stop
           offset="0"
           style="stop-color:#000000"
           id="stop56" /><stop
           offset="1"
           style="stop-color:#000000;stop-opacity:0"
           id="stop58" /></linearGradient><path
         enable-background="new    "
         d="M 88.93,41.76 59.48,71.2 62.3,74.03 91.75,44.59 88.93,41.76 z"
         id="path60"
         style="opacity:0.5;fill:url(#SVGID_6_)"
         inkscape:connector-curvature="0" /><linearGradient
         id="SVGID_7_"
         gradientUnits="userSpaceOnUse"
         x1="3942.3037"
         y1="407.67969"
         x2="3991.3657"
         y2="407.67969"
         gradientTransform="matrix(0.0775,0.0775,0.36,-0.36,-380.5087,-107.0688)"><stop
           offset="0"
           style="stop-color:#FFFFFF"
           id="stop63" /><stop
           offset="1"
           style="stop-color:#FFFFFF;stop-opacity:0"
           id="stop65" /></linearGradient><path
         d="M 86.46,37.04 57.13,66.37 60.92,70.16 89.5,40.08 86.46,37.04 z"
         id="path67"
         style="fill:url(#SVGID_7_)"
         inkscape:connector-curvature="0" /><path
         d="m 55.8,12 0.76,0.16 c 8.84,-2.94 28.68,8.64 24.26,18.96 -1.12,1.62 -0.93,4.5 0.42,6.31 l 8.91,8.77 c 2.629,2.37 5.109,2.57 7.47,1.93 4.55,-1.23 7.08,3.2 9.81,6.46 l -1.23,1.21 c -1.82,1.84 -1.65,4.94 0.39,6.98 2.04,2.04 5.15,2.21 6.971,0.39 l 8.14,-8.13 c 1.819,-1.84 1.649,-4.94 -0.4,-6.97 -1.84,-1.85 -4.51,-2.09 -6.37,-0.77 -5.58,-6.26 -2.65,-7.2 -10.01,-15.35 L 91.13,17.86 C 81.2,8.12 68.3,8.13 55.8,12 z"
         id="path69"
         inkscape:connector-curvature="0"
         style="fill:#2e3436" /><linearGradient
         id="SVGID_8_"
         gradientUnits="userSpaceOnUse"
         x1="771.4707"
         y1="-112.0674"
         x2="771.4707"
         y2="-191.7722"
         gradientTransform="matrix(0.3,0.3,0.09,-0.09,-124.0952,-215.9648)"><stop
           offset="0"
           style="stop-color:#FFFFFF"
           id="stop72" /><stop
           offset="1"
           style="stop-color:#FFFFFF;stop-opacity:0"
           id="stop74" /></linearGradient><path
         enable-background="new    "
         d="m 114.93,47.3 c -5.58,-6.26 -2.65,-7.2 -10.01,-15.35 L 91.13,17.86 C 85.44,12.28 78.77,9.9 71.77,9.6 l 41.13,41.53 2.975,-2.73 -0.945,-1.1 z"
         id="path76"
         style="opacity:0.5;fill:url(#SVGID_8_)"
         inkscape:connector-curvature="0" /><linearGradient
         id="SVGID_9_"
         gradientUnits="userSpaceOnUse"
         x1="791.55182"
         y1="137.0674"
         x2="791.55182"
         y2="201.52271"
         gradientTransform="matrix(0.33,0.33,0.0944,-0.0944,-186.9368,-206.3435)"><stop
           offset="0"
           style="stop-color:#FFFFFF"
           id="stop79" /><stop
           offset="1"
           style="stop-color:#FFFFFF;stop-opacity:0"
           id="stop81" /></linearGradient><path
         enable-background="new    "
         d="m 81.45,28 c 0.05,1 -0.18,2 -0.65,3.12 -1.1,1.62 -0.909,4.5 0.44,6.31 l 8.91,8.77 c 2.629,2.37 5.109,2.57 7.47,1.93 1.08,-0.33 2.06,-0.27 2.979,0 C 103.4,48.9 81.439,27.58 81.45,27.9 V 28 z"
         id="path83"
         style="opacity:0.25;fill:url(#SVGID_9_)"
         inkscape:connector-curvature="0" /><path
         d="m 56.43,62.25 c -1.39,-1.39 -4.48,-1.36 -5.9,0 L 9.5,101.63 c -3.74,3.59 -0.82,6.64 0.78,8.25 l 7.36,7.36 c 1.61,1.6 5.86,3.76 8.88,0.56 L 65.24,76.99 c 1.35,-1.42 1.359,-4.471 0,-5.87 0,0 0.01,-0.021 0,-0.021 L 56.43,62.25 z"
         id="path85"
         inkscape:connector-curvature="0"
         style="fill:#3465a4" /><linearGradient
         id="SVGID_10_"
         gradientUnits="userSpaceOnUse"
         x1="3082.335"
         y1="200.8486"
         x2="2959.1299"
         y2="200.8486"
         gradientTransform="matrix(0.0998,0.0998,0.28,-0.28,-318.9967,-153.7964)"><stop
           offset="0"
           style="stop-color:#000000"
           id="stop88" /><stop
           offset="1"
           style="stop-color:#000000;stop-opacity:0"
           id="stop90" /></linearGradient><path
         enable-background="new    "
         d="m 10.27,109.87 7.36,7.37 c 1.61,1.6 5.73,3.89 8.75,0.71 L 65.25,76.98 c 1.35,-1.431 1.391,-4.5 0,-5.881 l -8.83,-8.84 -46.15,47.611 z"
         id="path92"
         style="opacity:0.25;fill:url(#SVGID_10_)"
         inkscape:connector-curvature="0" /><linearGradient
         id="SVGID_11_"
         gradientUnits="userSpaceOnUse"
         x1="3794.1797"
         y1="283.01559"
         x2="3897.0601"
         y2="282.54568"
         gradientTransform="matrix(0.0807,0.0775,0.35,-0.36,-374.3828,-108.1586)"><stop
           offset="0"
           style="stop-color:#FFFFFF"
           id="stop95" /><stop
           offset="1"
           style="stop-color:#FFFFFF;stop-opacity:0"
           id="stop97" /></linearGradient><path
         enable-background="new    "
         d="m 51.2,65.7 -38.88,38.04 c -1.62,1.56 -1.07,3.75 0.1,4.89 L 16.55,112.6 58.92,69 55,65.32 c -0.84,-0.8 -2.8,-0.57 -3.8,0.38 z"
         id="path99"
         style="opacity:0.5;fill:url(#SVGID_11_)"
         inkscape:connector-curvature="0" /><g
         id="g101"><defs
           id="defs103"><path
             id="SVGID_12_"
             d="m 55.8,12 0.76,0.16 c 8.84,-2.94 28.68,8.64 24.26,18.96 -1.12,1.62 -0.93,4.5 0.42,6.31 L 56.43,62.25 c -1.39,-1.39 -4.48,-1.36 -5.9,0 L 9.5,101.63 c -3.74,3.59 -0.8,6.64 0.78,8.25 l 7.36,7.36 c 1.61,1.6 5.86,3.76 8.88,0.56 L 65.24,76.99 c 1.35,-1.42 1.359,-4.471 0,-5.87 0,0 0.01,-0.021 0,-0.021 L 90.15,46.2 c 2.629,2.37 5.113,2.575 7.47,1.93 4.55,-1.245 7.087,3.207 9.81,6.46 l -1.23,1.21 c -1.82,1.84 -1.65,4.94 0.39,6.98 2.04,2.04 5.15,2.21 6.971,0.39 l 8.14,-8.13 c 1.819,-1.84 1.649,-4.94 -0.4,-6.97 -1.84,-1.85 -4.51,-2.09 -6.37,-0.77 -5.58,-6.26 -2.65,-7.2 -10.01,-15.35 L 91.13,17.86 C 81.2,8.12 68.3,8.13 55.8,12 z"
             inkscape:connector-curvature="0" /></defs><clipPath
           id="SVGID_13_"><use
             xlink:href="#SVGID_12_"
             overflow="visible"
             id="use107"
             style="overflow:visible"
             x="0"
             y="0"
             width="367"
             height="128" /></clipPath><g
           clip-path="url(#SVGID_13_)"
           id="g109"><path
             id="outline2_2_"
             d="m 55.8,12 0.76,0.16 c 8.84,-2.94 28.68,8.64 24.26,18.96 -1.12,1.62 -0.93,4.5 0.42,6.31 L 56.43,62.25 c -1.39,-1.39 -4.48,-1.36 -5.9,0 L 9.5,101.63 c -3.74,3.59 -0.8,6.64 0.78,8.25 l 7.36,7.36 c 1.61,1.6 5.86,3.76 8.88,0.56 L 65.24,76.99 c 1.35,-1.42 1.359,-4.471 0,-5.87 0,0 0.01,-0.021 0,-0.021 L 90.15,46.2 c 2.629,2.37 5.113,2.575 7.47,1.93 4.55,-1.245 7.087,3.207 9.81,6.46 l -1.23,1.21 c -1.82,1.84 -1.65,4.94 0.39,6.98 2.04,2.04 5.15,2.21 6.971,0.39 l 8.14,-8.13 c 1.819,-1.84 1.649,-4.94 -0.4,-6.97 -1.84,-1.85 -4.51,-2.09 -6.37,-0.77 -5.58,-6.26 -2.65,-7.2 -10.01,-15.35 L 91.13,17.86 C 81.2,8.12 68.3,8.13 55.8,12 z"
             inkscape:connector-curvature="0"
             style="fill:none;stroke:#ffffff;stroke-width:4;stroke-linejoin:round;stroke-opacity:0.2" /></g></g><linearGradient
         id="SVGID_14_"
         gradientUnits="userSpaceOnUse"
         x1="3201.5117"
         y1="392.47659"
         x2="3202.7817"
         y2="344.1647"
         gradientTransform="matrix(0.1,0.1,0.22,-0.2,-281.5799,-196.58)"><stop
           offset="0"
           style="stop-color:#FFFFFF"
           id="stop113" /><stop
           offset="1"
           style="stop-color:#FFFFFF;stop-opacity:0"
           id="stop115" /></linearGradient><path
         d="m 120.45,49.26 c 1.51,1.44 1.8,3.44 -0.28,5.36 l -3.87,3.63 c -2.079,1.95 -7.521,-3.25 -5.45,-5.19 l 3.881,-3.63 c 2.069,-1.95 4.208,-1.61 5.719,-0.17 z"
         id="path117"
         style="fill:url(#SVGID_14_)"
         inkscape:connector-curvature="0" /></g></g><rect
     x="-201.00101"
     y="72.995003"
     width="204"
     height="48.5"
     id="rect119"
     style="fill:none" /><text
     font-size="65"
     id="text121"
     x="-237.00101"
     y="123.4053"
     style="font-size:65px;fill:#3465a4;font-family:HelveticaNeue-BoldItalic"><tspan
       style="font-size:60px;font-style:italic;font-weight:bold"
       id="tspan3106">Robus</tspan></text>
<text
     font-size="65"
     id="text123"
     x="-238.14841"
     y="50.6357"
     style="font-size:65px;font-family:HelveticaNeue-Bold"><tspan
       style="font-size:60px;font-weight:bold"
       id="tspan3112">Project</tspan></text>
</svg>